<?xml version="1.0" encoding="UTF-8"?>
<svg id="Camada_2" data-name="Camada 2" xmlns="http://www.w3.org/2000/svg" xmlns:xlink="http://www.w3.org/1999/xlink" viewBox="0 0 483.63 97.61">
  <defs>
    <style>
      .cls-1 {
        fill: url(#linear-gradient);
      }

      .cls-1, .cls-2, .cls-3, .cls-4, .cls-5, .cls-6, .cls-7, .cls-8, .cls-9, .cls-10, .cls-11, .cls-12, .cls-13, .cls-14, .cls-15, .cls-16, .cls-17, .cls-18, .cls-19, .cls-20, .cls-21, .cls-22, .cls-23, .cls-24, .cls-25, .cls-26, .cls-27, .cls-28, .cls-29, .cls-30, .cls-31 {
        stroke-width: 0px;
      }

      .cls-2 {
        fill: url(#_Áåçûìÿííûé_ãðàäèåíò_71);
      }

      .cls-3 {
        fill: url(#_Áåçûìÿííûé_ãðàäèåíò_63-4);
      }

      .cls-4 {
        fill: url(#_Áåçûìÿííûé_ãðàäèåíò_52);
      }

      .cls-5 {
        fill: url(#_Áåçûìÿííûé_ãðàäèåíò_63);
      }

      .cls-6 {
        fill: url(#_Áåçûìÿííûé_ãðàäèåíò_77-3);
      }

      .cls-7 {
        fill: url(#linear-gradient-6);
      }

      .cls-8 {
        fill: url(#_Áåçûìÿííûé_ãðàäèåíò_114-2);
      }

      .cls-9 {
        fill: url(#_Áåçûìÿííûé_ãðàäèåíò_63-6);
      }

      .cls-10 {
        fill: url(#_Áåçûìÿííûé_ãðàäèåíò_51);
      }

      .cls-11 {
        fill: url(#_Áåçûìÿííûé_ãðàäèåíò_63-3);
      }

      .cls-12 {
        fill: url(#_Áåçûìÿííûé_ãðàäèåíò_6);
      }

      .cls-13 {
        fill: url(#_Áåçûìÿííûé_ãðàäèåíò_63-9);
      }

      .cls-14 {
        fill: url(#linear-gradient-5);
      }

      .cls-15 {
        fill: url(#_Áåçûìÿííûé_ãðàäèåíò_114);
      }

      .cls-16 {
        fill: url(#linear-gradient-2);
      }

      .cls-17 {
        fill: url(#_Áåçûìÿííûé_ãðàäèåíò_20);
      }

      .cls-18 {
        fill: url(#linear-gradient-7);
      }

      .cls-19 {
        fill: url(#_Áåçûìÿííûé_ãðàäèåíò_63-10);
      }

      .cls-20 {
        fill: url(#linear-gradient-3);
      }

      .cls-21 {
        fill: url(#_Áåçûìÿííûé_ãðàäèåíò_63-7);
      }

      .cls-22 {
        fill: url(#linear-gradient-9);
      }

      .cls-23 {
        fill: url(#_Áåçûìÿííûé_ãðàäèåíò_63-2);
      }

      .cls-24 {
        fill: url(#linear-gradient-8);
      }

      .cls-25 {
        fill: url(#_Áåçûìÿííûé_ãðàäèåíò_77);
      }

      .cls-26 {
        fill: url(#_Áåçûìÿííûé_ãðàäèåíò_63-5);
      }

      .cls-27 {
        fill: url(#_Áåçûìÿííûé_ãðàäèåíò_77-2);
      }

      .cls-28 {
        fill: url(#_Áåçûìÿííûé_ãðàäèåíò_36);
      }

      .cls-29 {
        fill: url(#_Áåçûìÿííûé_ãðàäèåíò_63-8);
      }

      .cls-30 {
        fill: url(#linear-gradient-10);
      }

      .cls-31 {
        fill: url(#linear-gradient-4);
      }
    </style>
    <linearGradient id="_Áåçûìÿííûé_ãðàäèåíò_52" data-name="Áåçûìÿííûé ãðàäèåíò 52" x1="392.64" y1="105.37" x2="409.29" y2="57.64" gradientUnits="userSpaceOnUse">
      <stop offset=".53" stop-color="#0071bc"/>
      <stop offset=".61" stop-color="#006bb9"/>
      <stop offset=".72" stop-color="#005ab2"/>
      <stop offset=".84" stop-color="#003ea6"/>
      <stop offset=".98" stop-color="#001895"/>
      <stop offset="1" stop-color="#001192"/>
    </linearGradient>
    <linearGradient id="_Áåçûìÿííûé_ãðàäèåíò_51" data-name="Áåçûìÿííûé ãðàäèåíò 51" x1="429.48" y1="4.93" x2="407.4" y2="65.73" gradientUnits="userSpaceOnUse">
      <stop offset="0" stop-color="#001b96"/>
      <stop offset=".06" stop-color="#002d9e"/>
      <stop offset=".18" stop-color="#004bab"/>
      <stop offset=".3" stop-color="#0060b4"/>
      <stop offset=".42" stop-color="#006cba"/>
      <stop offset=".53" stop-color="#0071bc"/>
      <stop offset=".61" stop-color="#006bb9"/>
      <stop offset=".72" stop-color="#005ab2"/>
      <stop offset=".84" stop-color="#003ea6"/>
      <stop offset=".98" stop-color="#001895"/>
      <stop offset="1" stop-color="#001192"/>
    </linearGradient>
    <linearGradient id="_Áåçûìÿííûé_ãðàäèåíò_20" data-name="Áåçûìÿííûé ãðàäèåíò 20" x1="401.92" y1="59.09" x2="487.87" y2="87.64" gradientUnits="userSpaceOnUse">
      <stop offset="0" stop-color="#0080ff"/>
      <stop offset="1" stop-color="#2e3192"/>
    </linearGradient>
    <linearGradient id="_Áåçûìÿííûé_ãðàäèåíò_6" data-name="Áåçûìÿííûé ãðàäèåíò 6" x1="443.02" y1="61.17" x2="443.22" y2="61.58" gradientUnits="userSpaceOnUse">
      <stop offset="0" stop-color="#0071bc"/>
      <stop offset="1" stop-color="#2e3192"/>
    </linearGradient>
    <linearGradient id="_Áåçûìÿííûé_ãðàäèåíò_63" data-name="Áåçûìÿííûé ãðàäèåíò 63" x1="436.81" y1="45.69" x2="408" y2="57.64" gradientUnits="userSpaceOnUse">
      <stop offset="0" stop-color="#fff"/>
      <stop offset="1" stop-color="#3f8cff"/>
    </linearGradient>
    <linearGradient id="linear-gradient" x1="433.72" y1="3.12" x2="469.1" y2="92.63" gradientUnits="userSpaceOnUse">
      <stop offset="0" stop-color="#f1ea36"/>
      <stop offset="1" stop-color="#006fe5"/>
    </linearGradient>
    <linearGradient id="_Áåçûìÿííûé_ãðàäèåíò_63-2" data-name="Áåçûìÿííûé ãðàäèåíò 63" x1="418.92" y1="48.81" x2="457.02" y2="48.81" xlink:href="#_Áåçûìÿííûé_ãðàäèåíò_63"/>
    <radialGradient id="_Áåçûìÿííûé_ãðàäèåíò_71" data-name="Áåçûìÿííûé ãðàäèåíò 71" cx="189.38" cy="39.89" fx="189.38" fy="39.89" r="37.78" gradientUnits="userSpaceOnUse">
      <stop offset="0" stop-color="#2e3192"/>
      <stop offset=".64" stop-color="#0083e5"/>
      <stop offset="1" stop-color="#0083e5"/>
    </radialGradient>
    <linearGradient id="linear-gradient-2" x1="184.7" y1="41.92" x2="189.16" y2="-.01" gradientUnits="userSpaceOnUse">
      <stop offset="0" stop-color="#2e3192"/>
      <stop offset=".64" stop-color="#0083e5"/>
      <stop offset="1" stop-color="#0083e5"/>
    </linearGradient>
    <linearGradient id="_Áåçûìÿííûé_ãðàäèåíò_77" data-name="Áåçûìÿííûé ãðàäèåíò 77" x1="185.65" y1="86.05" x2="187.58" y2="39.66" gradientUnits="userSpaceOnUse">
      <stop offset="0" stop-color="#2e3192"/>
      <stop offset=".64" stop-color="#0083e5"/>
      <stop offset="1" stop-color="#0083e5"/>
    </linearGradient>
    <linearGradient id="linear-gradient-3" x1="175.64" y1="28.9" x2="245.23" y2="63.99" gradientUnits="userSpaceOnUse">
      <stop offset="0" stop-color="#f4eb34"/>
      <stop offset="1" stop-color="#006fe5"/>
    </linearGradient>
    <linearGradient id="linear-gradient-4" x1="173.92" y1="77.35" x2="238.85" y2="77.35" gradientUnits="userSpaceOnUse">
      <stop offset="0" stop-color="#f9ee32"/>
      <stop offset="1" stop-color="#006fe5"/>
    </linearGradient>
    <linearGradient id="_Áåçûìÿííûé_ãðàäèåíò_63-3" data-name="Áåçûìÿííûé ãðàäèåíò 63" x1="173.46" y1="66.79" x2="199.25" y2="66.79" xlink:href="#_Áåçûìÿííûé_ãðàäèåíò_63"/>
    <linearGradient id="_Áåçûìÿííûé_ãðàäèåíò_63-4" data-name="Áåçûìÿííûé ãðàäèåíò 63" x1="173.46" y1="28.25" x2="199.25" y2="28.25" xlink:href="#_Áåçûìÿííûé_ãðàäèåíò_63"/>
    <linearGradient id="linear-gradient-5" x1="12.66" y1="6.5" x2="12.66" y2="90.96" gradientUnits="userSpaceOnUse">
      <stop offset="0" stop-color="#2e3192"/>
      <stop offset=".64" stop-color="#e8d036"/>
      <stop offset="1" stop-color="#fff12d"/>
    </linearGradient>
    <linearGradient id="linear-gradient-6" x1="40.9" y1="7.85" x2="34.16" y2="39.45" gradientUnits="userSpaceOnUse">
      <stop offset="0" stop-color="#fff12d"/>
      <stop offset="1" stop-color="#0054c7"/>
    </linearGradient>
    <linearGradient id="_Áåçûìÿííûé_ãðàäèåíò_63-5" data-name="Áåçûìÿííûé ãðàäèåíò 63" x1="-.45" y1="10.56" x2="25.33" y2="10.56" xlink:href="#_Áåçûìÿííûé_ãðàäèåíò_63"/>
    <linearGradient id="_Áåçûìÿííûé_ãðàäèåíò_36" data-name="Áåçûìÿííûé ãðàäèåíò 36" x1="326.84" y1="115.31" x2="281" y2="52.82" gradientUnits="userSpaceOnUse">
      <stop offset="0" stop-color="#00a4e5"/>
      <stop offset="1" stop-color="#0054c7"/>
    </linearGradient>
    <linearGradient id="_Áåçûìÿííûé_ãðàäèåíò_77-2" data-name="Áåçûìÿííûé ãðàäèåíò 77" x1="264.01" y1="14.4" x2="257.54" y2="62.8" xlink:href="#_Áåçûìÿííûé_ãðàäèåíò_77"/>
    <linearGradient id="linear-gradient-7" x1="294.93" y1="-4.09" x2="282.48" y2="25.84" gradientUnits="userSpaceOnUse">
      <stop offset="0" stop-color="#faee32"/>
      <stop offset="1" stop-color="#0083e5"/>
    </linearGradient>
    <linearGradient id="_Áåçûìÿííûé_ãðàäèåíò_63-6" data-name="Áåçûìÿííûé ãðàäèåíò 63" x1="246.3" y1="10.52" x2="272.08" y2="10.52" xlink:href="#_Áåçûìÿííûé_ãðàäèåíò_63"/>
    <linearGradient id="_Áåçûìÿííûé_ãðàäèåíò_63-7" data-name="Áåçûìÿííûé ãðàäèåíò 63" x1="271.65" y1="50.45" x2="300.57" y2="50.45" xlink:href="#_Áåçûìÿííûé_ãðàäèåíò_63"/>
    <linearGradient id="linear-gradient-8" x1="366.63" y1="14.56" x2="360.16" y2="62.97" gradientUnits="userSpaceOnUse">
      <stop offset="0" stop-color="#2e3192"/>
      <stop offset=".64" stop-color="#ece738"/>
      <stop offset="1" stop-color="#fdf051"/>
    </linearGradient>
    <linearGradient id="_Áåçûìÿííûé_ãðàäèåíò_114" data-name="Áåçûìÿííûé ãðàäèåíò 114" x1="360.25" y1="-7.36" x2="362.92" y2="19.4" gradientUnits="userSpaceOnUse">
      <stop offset="0" stop-color="#00abe5"/>
      <stop offset="1" stop-color="#0083e5"/>
    </linearGradient>
    <linearGradient id="_Áåçûìÿííûé_ãðàäèåíò_77-3" data-name="Áåçûìÿííûé ãðàäèåíò 77" x1="353.17" y1="-7.79" x2="374.58" y2="36.52" xlink:href="#_Áåçûìÿííûé_ãðàäèåíò_77"/>
    <linearGradient id="_Áåçûìÿííûé_ãðàäèåíò_63-8" data-name="Áåçûìÿííûé ãðàäèåíò 63" x1="329.58" y1="10.56" x2="394.87" y2="10.56" xlink:href="#_Áåçûìÿííûé_ãðàäèåíò_63"/>
    <linearGradient id="linear-gradient-9" x1="124.84" y1="30.42" x2="152.05" y2="93.76" gradientUnits="userSpaceOnUse">
      <stop offset="0" stop-color="#2e3192"/>
      <stop offset=".64" stop-color="#f7ef6e"/>
      <stop offset="1" stop-color="#fff12d"/>
    </linearGradient>
    <linearGradient id="_Áåçûìÿííûé_ãðàäèåíò_114-2" data-name="Áåçûìÿííûé ãðàäèåíò 114" x1="154.86" y1="-3.61" x2="156.93" y2="42.87" xlink:href="#_Áåçûìÿííûé_ãðàäèåíò_114"/>
    <linearGradient id="_Áåçûìÿííûé_ãðàäèåíò_63-9" data-name="Áåçûìÿííûé ãðàäèåíò 63" x1="143.2" y1="34.42" x2="169.11" y2="34.42" xlink:href="#_Áåçûìÿííûé_ãðàäèåíò_63"/>
    <linearGradient id="linear-gradient-10" x1="83.59" y1="35.7" x2="108.92" y2="35.7" gradientUnits="userSpaceOnUse">
      <stop offset="0" stop-color="#00abe5"/>
      <stop offset="1" stop-color="#0083e5"/>
    </linearGradient>
    <linearGradient id="_Áåçûìÿííûé_ãðàäèåíò_63-10" data-name="Áåçûìÿííûé ãðàäèåíò 63" x1="85.27" y1="63.91" x2="108.95" y2="63.91" xlink:href="#_Áåçûìÿííûé_ãðàäèåíò_63"/>
  </defs>
  <g id="_Ñëîé_3" data-name="Ñëîé 3">
    <g>
      <g>
        <polygon class="cls-4" points="414.75 80.66 408.65 97.5 381.89 97.5 398.22 55.17 414.75 80.66"/>
        <path class="cls-10" d="m419.35.12l12.63,33.02-10.85,29.88c-1.27-.14-8.65-1.08-13.68-7.73-4.57-6.03-4.04-12.6-3.89-14.06,5.26-13.7,10.52-27.41,15.79-41.11Z"/>
        <path class="cls-17" d="m396.69,59.13c-4.7,12.27,5.87,21.49,19,21.52.14,0,.28,0,.42,0,16.99.04,33.99-.09,33.99-.09l-7.01-19.22h-20.28c-10.56,0-19.28-8.89-19.28-19.46,0-.21,0-.45.02-.66l-6.87,17.91Z"/>
        <path class="cls-12" d="m442.77,61.32c.21.02.45.02.68.02h-.68v-.02Z"/>
        <path class="cls-5" d="m443.1,61.34c-4.28.16-8.55.28-12.83.33-2.14.05-4.28.04-6.42.05-1.05-.02-2.15.08-3.25-.1-1.09-.14-2.15-.39-3.2-.68-4.16-1.24-8.06-3.77-10.48-7.42-.68-.86-1.08-1.89-1.59-2.85-.43-.99-.73-2.04-1.07-3.06-.18-1.07-.41-2.12-.54-3.18l-.16-3.21c.3,4.25,1.42,8.52,3.94,11.9,2.44,3.41,6.13,5.81,10.16,6.95,1.01.29,2.03.54,3.06.69,1.02.19,2.07.11,3.15.14,2.14.02,4.27.02,6.41.08,4.27.07,8.55.2,12.82.37Z"/>
        <polygon class="cls-1" points="483.63 97.5 446.96 .12 419.35 .12 456.59 97.5 483.63 97.5"/>
        <path class="cls-23" d="m419.35.12c3.26,8.05,6.48,16.13,9.64,24.22l9.41,24.31,9.21,24.38c3.05,8.14,6.03,16.3,8.98,24.47-3.26-8.05-6.48-16.13-9.64-24.22l-9.41-24.31-9.21-24.38c-3.05-8.14-6.03-16.3-8.98-24.47Z"/>
      </g>
      <g>
        <path class="cls-2" d="m238.85,97.49h-64.93V.1h64.93v21.12h-39.6v16.62h37.96v21.12h-37.96v17.41h39.6v21.12Z"/>
        <polygon class="cls-16" points="199.19 48.8 173.92 32.98 173.92 .1 199.19 .1 199.19 48.8"/>
        <polygon class="cls-25" points="199.19 88.65 173.92 72.83 173.92 39.96 199.19 39.96 199.19 88.65"/>
        <path class="cls-20" d="m173.92,39.75s2.58,19.46,25.33,19.2h37.96s0-21.11,0-21.11h-37.96c-22.74.25-25.33-19.21-25.33-19.21v21.12Z"/>
        <path class="cls-31" d="m199.25,76.39c-22.74.26-25.33-19.2-25.33-19.2v40.3l22.28-.08c.98.07,1.98.11,3.04.1l39.6-.06v-21.12l-39.6.06Z"/>
        <path class="cls-11" d="m173.92,57.19c.68,2.82,1.82,5.5,3.37,7.9,1.56,2.38,3.45,4.58,5.8,6.18,2.31,1.64,4.88,2.95,7.65,3.69.67.26,1.37.41,2.08.53l2.12.42c1.42.21,2.87.29,4.31.48-1.45.02-2.91.03-4.37-.03l-2.17-.3c-.73-.08-1.45-.2-2.16-.42l-2.13-.59c-.69-.25-1.36-.57-2.04-.85l-1.01-.44-.95-.56c-.62-.4-1.31-.7-1.87-1.18-2.4-1.73-4.39-4.02-5.86-6.56-1.47-2.55-2.46-5.37-2.77-8.26Z"/>
        <path class="cls-3" d="m173.92,18.64c.68,2.82,1.82,5.5,3.37,7.9,1.56,2.38,3.45,4.58,5.8,6.18,2.31,1.64,4.88,2.95,7.65,3.69.67.26,1.37.41,2.08.53l2.12.42c1.42.21,2.87.29,4.31.48-1.45.02-2.91.03-4.37-.03l-2.17-.3c-.73-.08-1.45-.2-2.16-.42l-2.13-.59c-.69-.25-1.36-.57-2.04-.85l-1.01-.44-.95-.56c-.62-.4-1.31-.7-1.87-1.18-2.4-1.73-4.39-4.02-5.86-6.56-1.47-2.55-2.46-5.37-2.77-8.26Z"/>
      </g>
      <g>
        <path class="cls-14" d="m0,.12l25.33,1.47v95.91H0V.12Z"/>
        <path class="cls-7" d="m46.9.12H0c2.98,13.23,10.74,19.38,20.35,20.65h20.68c6.12,0,11.07,4.96,11.07,11.07s-4.96,11.07-11.07,11.07h-15.71v15.04l25.46-.07c6.63,0,13-2.6,17.73-7.25,5.94-4.73,9.4-11.9,9.4-19.5C77.92,14,64.03.12,46.9.12Z"/>
        <path class="cls-26" d="m0,.12c.71,2.49,1.7,4.88,2.87,7.16,1.21,2.26,2.61,4.41,4.31,6.3,1.69,1.91,3.73,3.47,5.95,4.67,2.22,1.26,4.73,1.84,7.24,2.29h-.02c1.66.07,3.32.13,4.97.24-1.66.11-3.32.17-4.97.24h-.01s-.01,0-.01,0c-2.58-.32-5.25-.72-7.57-2.03-2.33-1.21-4.54-2.78-6.22-4.82-1.72-1.99-3.17-4.21-4.23-6.6C1.22,5.18.4,2.68,0,.12Z"/>
      </g>
      <g>
        <path class="cls-28" d="m323.04,93.16c-5.24-14.14-13.67-26.5-26.01-35.34,0,0-2.71-2.38-2.71-2.38,0,0-6.82-3.12-5.03-12.59h-23.18l5.97,20.34c13.39,9.68,22.36,18.57,27.26,34.36h25.33l-1.62-4.38Z"/>
        <path class="cls-27" d="m246.75.07h25.33v97.38h-25.33V.07Z"/>
        <path class="cls-18" d="m293.65.07h-46.9c2.98,13.23,10.74,19.38,20.35,20.65h20.22c6.06,0,11.35,4.67,11.53,10.73.19,6.27-4.84,11.41-11.07,11.41h-15.71c4.59,11.68,16.49,14,16.1,13.82l9.36,1.15c6.63,0,13-2.6,17.73-7.25,5.94-4.73,9.4-11.9,9.4-19.5,0-17.13-13.89-31.02-31.02-31.02Z"/>
        <path class="cls-9" d="m246.75.07c.71,2.49,1.7,4.88,2.87,7.16,1.21,2.26,2.61,4.41,4.31,6.3,1.69,1.91,3.73,3.47,5.95,4.67,2.22,1.26,4.73,1.84,7.24,2.29h-.02c1.66.07,3.32.13,4.97.24-1.66.11-3.32.17-4.97.24h-.01s-.01,0-.01,0c-2.58-.32-5.25-.72-7.57-2.03-2.33-1.21-4.54-2.78-6.22-4.82-1.72-1.99-3.17-4.21-4.23-6.6-1.08-2.38-1.9-4.88-2.3-7.44Z"/>
        <path class="cls-21" d="m300.51,57.66c-2.85.48-5.77.45-8.65.12-2.88-.34-5.72-1.13-8.4-2.3-2.68-1.19-5.08-2.99-7.05-5.13-2.06-2.11-3.31-4.81-4.32-7.49l1.03,1.9c.32.64.66,1.27,1.12,1.82l1.23,1.74,1.46,1.55c2.01,1.96,4.3,3.7,6.92,4.78,2.56,1.2,5.32,1.95,8.12,2.43,2.81.47,5.67.68,8.55.57Z"/>
      </g>
      <g>
        <path class="cls-24" d="m349.38.23h25.33v97.38h-25.33V.23Z"/>
        <rect class="cls-15" x="329.58" width="64.93" height="21.12"/>
        <path class="cls-6" d="m394.5,0s-12.56,18.15-64.93,21.12h64.93V0Z"/>
        <path class="cls-29" d="m329.58,21.12c2.91-.16,5.81-.45,8.7-.78,2.89-.31,5.78-.68,8.65-1.13,5.75-.88,11.46-1.97,17.07-3.47,5.62-1.45,11.14-3.3,16.38-5.78,2.63-1.21,5.16-2.64,7.54-4.29,2.4-1.62,4.65-3.49,6.59-5.66-3.67,4.55-8.6,7.99-13.82,10.59-5.24,2.63-10.82,4.5-16.45,6.03-5.67,1.44-11.41,2.55-17.2,3.28-5.79.74-11.62,1.18-17.44,1.22Z"/>
      </g>
      <g>
        <path class="cls-22" d="m143.33.07v58.95c0,.77.1,1.26,0,2-1.11,8.41-8.46,15.18-17.18,15.18h-.05c-9.49,0-17.18-7.69-17.18-17.18V.07h-25.33l.14,60.95c1.04,20.34,17.86,36.53,38.47,36.53h7.92c20.6,0,37.38-16.18,38.43-36.53l.1-2h0V.07h-25.33Z"/>
        <path class="cls-8" d="m143.33.07h25.33v25.15c-.18.95-.53,3.79-2.8,5.58-1.26.99-1.8,2.44-4.43,4.07-6.7,4.17-16.06,8.96-18.1,8.75V.07Z"/>
        <path class="cls-13" d="m143.33,43.62c5.1-1.87,10.05-4.05,14.6-6.94,2.3-1.38,4.49-2.97,6.44-4.79,1.97-1.81,3.55-4.03,4.29-6.67-.21,1.34-.63,2.67-1.29,3.88-.68,1.21-1.55,2.28-2.5,3.29-1.91,1.99-4.15,3.61-6.46,5.07-4.67,2.83-9.76,5.01-15.08,6.16Z"/>
        <path class="cls-30" d="m83.59.07v59.41s.28,7.48,2.1,11.84c0,0,3.95-8.73,11.67-12.42.32-.15.63-.27.95-.4.91-.12,3.19-1.19,4.18-1.33,3.47-.49,6.25-.21,6.43-.47V.07h-25.33Z"/>
        <path class="cls-19" d="m85.69,71.32c.8-2.31,2.02-4.49,3.55-6.44,1.51-1.96,3.39-3.65,5.47-5,4.17-2.73,9.34-3.91,14.2-3.18-2.45.07-4.86.38-7.17,1.05-2.33.59-4.51,1.65-6.56,2.88-2.05,1.25-3.83,2.89-5.45,4.67-1.59,1.82-2.94,3.84-4.05,6.03Z"/>
      </g>
    </g>
  </g>
</svg>